<?xml version="1.0" standalone="no"?>
<!DOCTYPE svg PUBLIC "-//W3C//DTD SVG 20010904//EN"
 "http://www.w3.org/TR/2001/REC-SVG-20010904/DTD/svg10.dtd">
<svg version="1.0" xmlns="http://www.w3.org/2000/svg"
 width="379.000000pt" height="369.000000pt" viewBox="0 0 379.000000 369.000000"
 preserveAspectRatio="xMidYMid meet">

<g transform="translate(0.000000,369.000000) scale(0.100000,-0.100000)"
fill="#000000" stroke="none">
<path d="M0 3125 l0 -565 26 -6 26 -7 -26 -16 c-20 -12 -26 -24 -26 -49 0 -20
6 -35 15 -38 25 -10 45 16 45 57 0 43 9 48 33 21 11 -12 15 -28 11 -52 -5 -32
-2 -38 48 -81 54 -47 88 -59 203 -74 81 -11 260 -25 399 -31 127 -6 129 -6
147 17 10 13 19 27 19 31 0 3 -35 6 -78 7 -86 1 -518 82 -632 118 -76 24 -75
21 -35 177 l18 68 66 -5 c36 -4 113 -16 171 -27 133 -26 236 -46 375 -70 61
-11 130 -26 155 -34 39 -12 45 -17 42 -37 l-4 -24 27 25 26 25 320 4 c175 2
329 1 341 -3 23 -5 34 -22 68 -106 10 -25 30 -70 44 -100 l26 -55 147 3 c189
3 516 39 778 86 88 15 130 29 140 46 3 5 10 8 15 5 9 -6 82 29 115 54 11 9 22
27 23 41 5 30 27 57 118 140 64 59 104 113 104 141 0 16 26 39 44 39 20 0 33
-25 41 -85 4 -27 11 -54 15 -60 5 -5 10 -21 12 -34 1 -14 8 -26 14 -28 14 -5
19 29 34 207 13 163 14 166 51 179 18 6 34 11 37 11 7 0 -7 -159 -19 -205 -5
-22 -12 -87 -15 -145 -3 -63 -13 -128 -25 -162 -11 -32 -24 -81 -30 -108 -9
-41 -22 -63 -72 -115 -136 -141 -212 -226 -225 -250 -7 -14 -19 -25 -26 -25
-7 0 -21 -9 -31 -20 -10 -11 -23 -20 -29 -20 -13 0 -56 -32 -104 -78 -19 -18
-47 -41 -63 -53 -16 -11 -29 -26 -29 -32 0 -7 -90 -102 -200 -212 -154 -154
-217 -225 -274 -310 -148 -216 -161 -234 -171 -239 -6 -2 -53 0 -105 5 -52 5
-192 13 -310 18 -118 5 -327 14 -465 21 -223 11 -402 9 -634 -6 -55 -3 -79 -1
-97 11 -30 20 -37 19 -30 -3 4 -10 0 -27 -8 -37 -8 -11 -11 -24 -6 -30 4 -5
13 -28 20 -50 16 -50 27 -65 51 -65 13 0 21 12 29 39 5 21 17 42 25 45 26 10
920 -10 1387 -31 93 -4 98 -6 118 -32 20 -28 20 -29 0 -51 -11 -13 -25 -42
-31 -64 -6 -23 -20 -65 -30 -94 -10 -30 -19 -62 -19 -72 0 -10 -8 -26 -17 -35
-17 -18 -68 -18 -348 2 l-89 6 -52 53 -52 52 -149 1 -148 2 -50 -46 -50 -47
-194 3 c-127 2 -202 8 -217 16 -20 10 -24 9 -24 -3 0 -8 -4 -14 -10 -14 -5 0
-12 0 -15 0 -2 0 -16 -12 -29 -25 -27 -27 -46 -32 -46 -12 0 8 -3 8 -9 -2 -10
-16 -53 47 -110 161 l-34 68 18 107 c11 67 24 113 33 120 17 14 13 33 -22 118
l-17 40 22 -27 c19 -26 49 -38 49 -20 0 15 -40 92 -48 92 -4 0 -21 25 -37 55
-15 30 -30 53 -33 50 -3 -2 -16 17 -30 43 -29 56 -72 118 -101 149 -12 12 -21
27 -21 33 0 6 -6 13 -14 16 -8 3 -17 13 -20 22 -3 9 -28 53 -56 97 -27 44 -72
125 -100 179 -47 94 -50 103 -50 177 0 82 -12 107 -37 74 -11 -16 -13 -208
-13 -1097 l0 -1078 1143 3 c797 3 1163 7 1211 15 52 9 78 9 110 0 27 -8 158
-13 375 -15 286 -3 337 -1 357 12 21 14 23 14 17 -2 -4 -11 -3 -14 5 -9 7 4
12 19 12 32 0 14 10 35 23 46 12 11 16 17 10 13 -8 -4 -11 -1 -7 9 10 27 39
27 110 1 38 -14 70 -25 71 -25 2 0 3 -18 3 -40 l0 -40 175 0 175 0 0 360 0
360 -53 0 c-59 0 -77 12 -77 50 0 37 5 39 48 24 20 -7 47 -13 60 -14 22 0 22
2 22 116 l0 116 -34 -6 c-33 -6 -34 -6 -38 33 -5 55 -1 60 38 54 l34 -6 0 904
c-1 893 -1 904 -20 879 -32 -42 -50 -60 -59 -60 -14 0 -21 55 -21 162 0 55 -4
107 -9 116 -12 23 -81 436 -88 530 l-6 72 -46 0 -47 0 -12 -57 c-6 -32 -19
-101 -28 -153 -25 -149 -44 -212 -96 -328 -15 -34 -28 -69 -28 -76 0 -8 -4
-17 -8 -20 -5 -3 -8 -18 -7 -33 1 -15 0 -20 -2 -9 -4 16 -7 15 -19 -9 -15 -30
-19 -59 -5 -36 6 9 11 10 15 2 4 -6 4 -15 1 -21 -3 -5 0 -10 7 -10 7 0 4 -8
-9 -21 -26 -26 -45 -17 -38 19 3 15 2 20 -1 12 -4 -8 -12 -18 -18 -22 -8 -6
-7 -11 3 -17 14 -9 7 -31 -10 -31 -6 0 -8 4 -5 9 4 5 -3 7 -14 4 -11 -3 -20 0
-20 6 0 6 -7 11 -15 11 -8 0 -15 4 -15 9 0 5 -18 12 -40 16 -22 4 -38 11 -34
16 3 5 1 9 -5 9 -5 0 -11 -5 -13 -10 -2 -6 -14 8 -28 30 -14 23 -32 40 -43 40
-10 0 -78 -25 -150 -56 -214 -91 -262 -104 -657 -174 -58 -11 -136 -26 -175
-34 -161 -36 -378 -50 -775 -50 -361 0 -392 1 -500 22 -63 13 -155 30 -205 38
-217 36 -272 52 -389 110 l-116 57 0 41 c0 23 5 113 10 201 12 173 10 166 124
433 l35 82 -104 0 -105 0 0 -565z m3570 214 c0 -5 5 -7 10 -4 6 3 13 -1 17
-10 3 -10 1 -20 -5 -24 -11 -6 -14 -21 -29 -133 -5 -39 -11 -51 -37 -67 -17
-11 -34 -17 -37 -13 -7 8 8 178 18 202 8 20 10 27 12 45 1 17 51 21 51 4z
m-699 -656 c22 -48 43 -102 46 -119 5 -29 2 -32 -35 -47 -50 -20 -197 -57
-227 -57 -13 0 -92 -13 -177 -30 -84 -16 -178 -34 -208 -40 -30 -5 -90 -16
-134 -25 -110 -21 -218 -20 -238 3 -21 24 -66 126 -74 166 -6 34 -6 34 48 49
56 17 267 59 508 102 80 14 208 39 285 55 77 16 145 29 152 29 7 1 31 -38 54
-86z m841 62 c6 -14 19 -25 30 -25 26 0 22 -18 -4 -22 -18 -2 -23 -10 -24 -36
-1 -29 -25 -61 -46 -62 -10 0 -10 95 -2 139 8 37 30 40 46 6z m-3370 -1238
c14 -28 28 -70 31 -92 2 -22 14 -85 26 -140 12 -55 24 -120 27 -145 7 -56 0
-48 -66 85 -45 91 -51 111 -60 200 -5 55 -10 110 -10 123 0 38 24 24 52 -31z
m-37 -287 l0 -35 -71 -3 c-74 -3 -101 9 -89 40 10 25 47 37 105 35 l55 -2 0
-35z m3214 -93 c1 -34 -3 -59 -13 -72 -14 -19 -15 -15 -16 46 0 62 4 79 20 79
4 0 8 -24 9 -53z m-3201 6 c5 -10 21 -54 36 -98 24 -73 27 -92 24 -205 l-3
-125 -38 134 c-40 139 -62 311 -39 311 6 0 15 -8 20 -17z m3462 7 c0 -5 -4
-10 -9 -10 -6 0 -13 5 -16 10 -3 6 1 10 9 10 9 0 16 -4 16 -10z m-1070 -110
c0 -5 -2 -10 -4 -10 -3 0 -8 5 -11 10 -3 6 -1 10 4 10 6 0 11 -4 11 -10z
m-2280 -884 c0 -7 -7 -19 -15 -26 -8 -7 -15 -20 -15 -30 0 -30 -23 -39 -103
-41 -85 -2 -97 2 -77 26 42 50 210 107 210 71z"/>
<path d="M3282 2930 c0 -14 2 -19 5 -12 2 6 2 18 0 25 -3 6 -5 1 -5 -13z"/>
<path d="M3364 2495 c-4 -9 4 -31 17 -50 21 -31 25 -32 31 -15 7 20 4 52 -7
70 -9 15 -35 12 -41 -5z"/>
<path d="M680 830 c-13 -8 -12 -10 3 -10 9 0 17 5 17 10 0 12 -1 12 -20 0z"/>
<path d="M667 787 c-3 -9 -2 -19 4 -23 15 -9 18 -2 9 20 -6 17 -7 18 -13 3z"/>
</g>
</svg>
